<svg width="32" height="32" viewBox="0 0 32 32" fill="none" xmlns="http://www.w3.org/2000/svg">
<circle cx="16" cy="16" r="16" fill="#FAF6F0"/>
<path d="M7.5 23C8.59792 22.1604 10.2979 21.0028 11.6542 20.5189C13.0104 20.0349 14.4313 19.7925 15.9167 19.7917C17.4021 19.7908 18.8229 20.0332 20.1792 20.5189C21.5354 21.0045 22.9021 22.6621 24 23.5C24.7535 22.6174 26.0619 21.4816 26.4821 20.3622C26.9023 19.2427 27.112 17.1868 27.1111 15.9167C27.1111 13.0535 26.1049 9.75412 24.0925 7.74085C22.0801 5.72757 18.7807 4.72136 15.9167 4.72222C13.0526 4.72308 9.75326 5.72972 7.74085 7.74214C5.72844 9.75456 4.72222 13.0535 4.72222 15.9167C4.72222 17.1868 4.93233 19.2427 5.35256 20.3622C5.77278 21.4816 6.74739 22.1174 7.5 23ZM15.9167 17.2083C14.6465 17.2083 13.5753 16.7726 12.703 15.9012C11.8307 15.0297 11.395 13.9585 11.3958 12.6875C11.3967 11.4165 11.8328 10.3453 12.7043 9.47383C13.5757 8.60239 14.6465 8.16667 15.9167 8.16667C17.1868 8.16667 18.258 8.60282 19.1303 9.47512C20.0026 10.3474 20.4384 11.4182 20.4375 12.6875C20.4366 13.9568 20.0009 15.028 19.1303 15.9012C18.2598 16.7743 17.1885 17.2101 15.9167 17.2083ZM15.9167 28.8333C14.1299 28.8333 12.4507 28.4941 10.8792 27.8155C9.30764 27.1369 7.94062 26.2168 6.77813 25.0552C5.61563 23.8936 4.69553 22.5266 4.01783 20.9542C3.34014 19.3818 3.00086 17.7026 3 15.9167C2.99914 14.1307 3.33842 12.4516 4.01783 10.8792C4.69725 9.30678 5.61735 7.93976 6.77813 6.77813C7.9389 5.61649 9.30592 4.69639 10.8792 4.01783C12.4524 3.33928 14.1316 3 15.9167 3C17.7017 3 19.3809 3.33928 20.9542 4.01783C22.5274 4.69639 23.8944 5.61649 25.0552 6.77813C26.216 7.93976 27.1365 9.30678 27.8168 10.8792C28.4971 12.4516 28.8359 14.1307 28.8333 15.9167C28.8308 17.7026 28.4915 19.3818 27.8155 20.9542C27.1395 22.5266 26.2194 23.8936 25.0552 25.0552C23.891 26.2168 22.524 27.1374 20.9542 27.8168C19.3844 28.4962 17.7052 28.8351 15.9167 28.8333Z" fill="#2F3325"/>
</svg>
