<svg width="18" height="12" viewBox="0 0 18 12" fill="none" xmlns="http://www.w3.org/2000/svg">
<path d="M0.765137 4.86916C0.342573 4.86916 1.701e-05 5.21171 1.70469e-05 5.63428C1.70839e-05 6.05684 0.342573 6.3994 0.765137 6.3994L0.765137 5.63428L0.765137 4.86916ZM17.3875 6.1753C17.6863 5.8765 17.6863 5.39205 17.3875 5.09325L12.5183 0.224063C12.2195 -0.0747347 11.735 -0.0747347 11.4362 0.224063C11.1374 0.522861 11.1374 1.00731 11.4362 1.30611L15.7644 5.63428L11.4362 9.96245C11.1374 10.2612 11.1374 10.7457 11.4362 11.0445C11.735 11.3433 12.2195 11.3433 12.5183 11.0445L17.3875 6.1753ZM0.765137 5.63428L0.765137 6.3994L16.8464 6.3994L16.8464 5.63428L16.8464 4.86916L0.765137 4.86916L0.765137 5.63428Z" fill="#2F3325"/>
</svg>
